<?xml version="1.0" encoding="utf-8"?>
<!-- Generator: Adobe Illustrator 19.1.0, SVG Export Plug-In . SVG Version: 6.00 Build 0)  -->
<svg version="1.1" id="Layer_1" xmlns="http://www.w3.org/2000/svg" xmlns:xlink="http://www.w3.org/1999/xlink" x="0px" y="0px"
     viewBox="-38 338 534.3 118" style="enable-background:new -38 338 534.3 118;" xml:space="preserve">
<desc>Same set of examples, but with the classification threshold decreased.</desc>
<style type="text/css">
	.lower-st0{font-family:'ArialMT';}
	.lower-st1{font-size:11px;}
	.lower-st2{fill:none;}
	.lower-st3{fill:none;stroke:#424242;stroke-width:2.25;stroke-linejoin:round;stroke-miterlimit:14.3356;}
	.lower-st4{fill:#FF0000;}
	.lower-st5{fill:none;stroke:#000000;stroke-width:1.5;stroke-linejoin:round;stroke-miterlimit:14.3356;}
	.lower-st6{fill:#00FF00;}
	.lower-st7{fill:none;stroke:#424242;stroke-width:0.75;stroke-linejoin:round;stroke-miterlimit:14.3356;stroke-dasharray:3,2.25;}
	.lower-st8{fill-opacity:0;}
	.lower-st9{font-size:10px;}
	.lower-st10{font-size:8px;}
</style>
<text transform="matrix(1 0 0 1 76.3517 448.6099)" class="lower-st0 lower-st1">Output of Logistic Regression model</text>
<line class="lower-st2" x1="-18.9" y1="428.5" x2="348.9" y2="428.5"/>
<line class="lower-st3" x1="-18.9" y1="428.5" x2="348.9" y2="428.5"/>
<path class="lower-st4" d="M-11.2,404L-11.2,404c0-1.5,1.3-2.6,2.9-2.6s2.9,1.2,2.9,2.6c0,1.5-1.3,2.6-2.9,2.6S-11.2,405.4-11.2,404z"/>
<path class="lower-st5" d="M-11.2,404L-11.2,404c0-1.5,1.3-2.6,2.9-2.6s2.9,1.2,2.9,2.6c0,1.5-1.3,2.6-2.9,2.6S-11.2,405.4-11.2,404z"/>
<path class="lower-st4" d="M0.8,404L0.8,404c0-1.5,1.3-2.6,2.9-2.6c1.6,0,2.9,1.2,2.9,2.6c0,1.5-1.3,2.6-2.9,2.6S0.8,405.4,0.8,404z"/>
<path class="lower-st5" d="M0.8,404L0.8,404c0-1.5,1.3-2.6,2.9-2.6c1.6,0,2.9,1.2,2.9,2.6c0,1.5-1.3,2.6-2.9,2.6S0.8,405.4,0.8,404z"/>
<path class="lower-st4" d="M12.8,404L12.8,404c0-1.5,1.3-2.6,2.9-2.6c1.6,0,2.9,1.2,2.9,2.6c0,1.5-1.3,2.6-2.9,2.6S12.8,405.4,12.8,404z"
	/>
<path class="lower-st5" d="M12.8,404L12.8,404c0-1.5,1.3-2.6,2.9-2.6c1.6,0,2.9,1.2,2.9,2.6c0,1.5-1.3,2.6-2.9,2.6S12.8,405.4,12.8,404z"
	/>
<path class="lower-st4" d="M24.8,404L24.8,404c0-1.5,1.3-2.6,2.9-2.6s2.9,1.2,2.9,2.6c0,1.5-1.3,2.6-2.9,2.6S24.8,405.4,24.8,404z"/>
<path class="lower-st5" d="M24.8,404L24.8,404c0-1.5,1.3-2.6,2.9-2.6s2.9,1.2,2.9,2.6c0,1.5-1.3,2.6-2.9,2.6S24.8,405.4,24.8,404z"/>
<path class="lower-st4" d="M36.8,404L36.8,404c0-1.5,1.3-2.6,2.9-2.6s2.9,1.2,2.9,2.6c0,1.5-1.3,2.6-2.9,2.6S36.8,405.4,36.8,404z"/>
<path class="lower-st5" d="M36.8,404L36.8,404c0-1.5,1.3-2.6,2.9-2.6s2.9,1.2,2.9,2.6c0,1.5-1.3,2.6-2.9,2.6S36.8,405.4,36.8,404z"/>
<path class="lower-st4" d="M48.8,404L48.8,404c0-1.5,1.3-2.6,2.9-2.6s2.9,1.2,2.9,2.6c0,1.5-1.3,2.6-2.9,2.6S48.8,405.4,48.8,404z"/>
<path class="lower-st5" d="M48.8,404L48.8,404c0-1.5,1.3-2.6,2.9-2.6s2.9,1.2,2.9,2.6c0,1.5-1.3,2.6-2.9,2.6S48.8,405.4,48.8,404z"/>
<path class="lower-st4" d="M60.8,404L60.8,404c0-1.5,1.3-2.6,2.9-2.6s2.9,1.2,2.9,2.6c0,1.5-1.3,2.6-2.9,2.6S60.8,405.4,60.8,404z"/>
<path class="lower-st5" d="M60.8,404L60.8,404c0-1.5,1.3-2.6,2.9-2.6s2.9,1.2,2.9,2.6c0,1.5-1.3,2.6-2.9,2.6S60.8,405.4,60.8,404z"/>
<path class="lower-st4" d="M72.8,404L72.8,404c0-1.5,1.3-2.6,2.9-2.6s2.9,1.2,2.9,2.6c0,1.5-1.3,2.6-2.9,2.6S72.8,405.4,72.8,404z"/>
<path class="lower-st5" d="M72.8,404L72.8,404c0-1.5,1.3-2.6,2.9-2.6s2.9,1.2,2.9,2.6c0,1.5-1.3,2.6-2.9,2.6S72.8,405.4,72.8,404z"/>
<path class="lower-st4" d="M0.8,404L0.8,404c0-1.5,1.3-2.6,2.9-2.6c1.6,0,2.9,1.2,2.9,2.6c0,1.5-1.3,2.6-2.9,2.6S0.8,405.4,0.8,404z"/>
<path class="lower-st5" d="M0.8,404L0.8,404c0-1.5,1.3-2.6,2.9-2.6c1.6,0,2.9,1.2,2.9,2.6c0,1.5-1.3,2.6-2.9,2.6S0.8,405.4,0.8,404z"/>
<path class="lower-st4" d="M12.8,404L12.8,404c0-1.5,1.3-2.6,2.9-2.6c1.6,0,2.9,1.2,2.9,2.6c0,1.5-1.3,2.6-2.9,2.6S12.8,405.4,12.8,404z"
	/>
<path class="lower-st5" d="M12.8,404L12.8,404c0-1.5,1.3-2.6,2.9-2.6c1.6,0,2.9,1.2,2.9,2.6c0,1.5-1.3,2.6-2.9,2.6S12.8,405.4,12.8,404z"
	/>
<path class="lower-st4" d="M24.8,404L24.8,404c0-1.5,1.3-2.6,2.9-2.6s2.9,1.2,2.9,2.6c0,1.5-1.3,2.6-2.9,2.6S24.8,405.4,24.8,404z"/>
<path class="lower-st5" d="M24.8,404L24.8,404c0-1.5,1.3-2.6,2.9-2.6s2.9,1.2,2.9,2.6c0,1.5-1.3,2.6-2.9,2.6S24.8,405.4,24.8,404z"/>
<path class="lower-st4" d="M36.8,404L36.8,404c0-1.5,1.3-2.6,2.9-2.6s2.9,1.2,2.9,2.6c0,1.5-1.3,2.6-2.9,2.6S36.8,405.4,36.8,404z"/>
<path class="lower-st5" d="M36.8,404L36.8,404c0-1.5,1.3-2.6,2.9-2.6s2.9,1.2,2.9,2.6c0,1.5-1.3,2.6-2.9,2.6S36.8,405.4,36.8,404z"/>
<path class="lower-st4" d="M48.8,404L48.8,404c0-1.5,1.3-2.6,2.9-2.6s2.9,1.2,2.9,2.6c0,1.5-1.3,2.6-2.9,2.6S48.8,405.4,48.8,404z"/>
<path class="lower-st5" d="M48.8,404L48.8,404c0-1.5,1.3-2.6,2.9-2.6s2.9,1.2,2.9,2.6c0,1.5-1.3,2.6-2.9,2.6S48.8,405.4,48.8,404z"/>
<path class="lower-st4" d="M60.8,404L60.8,404c0-1.5,1.3-2.6,2.9-2.6s2.9,1.2,2.9,2.6c0,1.5-1.3,2.6-2.9,2.6S60.8,405.4,60.8,404z"/>
<path class="lower-st5" d="M60.8,404L60.8,404c0-1.5,1.3-2.6,2.9-2.6s2.9,1.2,2.9,2.6c0,1.5-1.3,2.6-2.9,2.6S60.8,405.4,60.8,404z"/>
<path class="lower-st4" d="M72.8,404L72.8,404c0-1.5,1.3-2.6,2.9-2.6s2.9,1.2,2.9,2.6c0,1.5-1.3,2.6-2.9,2.6S72.8,405.4,72.8,404z"/>
<path class="lower-st5" d="M72.8,404L72.8,404c0-1.5,1.3-2.6,2.9-2.6s2.9,1.2,2.9,2.6c0,1.5-1.3,2.6-2.9,2.6S72.8,405.4,72.8,404z"/>
<path class="lower-st4" d="M84.8,404L84.8,404c0-1.5,1.3-2.6,2.9-2.6s2.9,1.2,2.9,2.6c0,1.5-1.3,2.6-2.9,2.6S84.8,405.4,84.8,404z"/>
<path class="lower-st5" d="M84.8,404L84.8,404c0-1.5,1.3-2.6,2.9-2.6s2.9,1.2,2.9,2.6c0,1.5-1.3,2.6-2.9,2.6S84.8,405.4,84.8,404z"/>
<path class="lower-st4" d="M0.8,404L0.8,404c0-1.5,1.3-2.6,2.9-2.6c1.6,0,2.9,1.2,2.9,2.6c0,1.5-1.3,2.6-2.9,2.6S0.8,405.4,0.8,404z"/>
<path class="lower-st5" d="M0.8,404L0.8,404c0-1.5,1.3-2.6,2.9-2.6c1.6,0,2.9,1.2,2.9,2.6c0,1.5-1.3,2.6-2.9,2.6S0.8,405.4,0.8,404z"/>
<path class="lower-st4" d="M12.8,404L12.8,404c0-1.5,1.3-2.6,2.9-2.6c1.6,0,2.9,1.2,2.9,2.6c0,1.5-1.3,2.6-2.9,2.6S12.8,405.4,12.8,404z"
	/>
<path class="lower-st5" d="M12.8,404L12.8,404c0-1.5,1.3-2.6,2.9-2.6c1.6,0,2.9,1.2,2.9,2.6c0,1.5-1.3,2.6-2.9,2.6S12.8,405.4,12.8,404z"
	/>
<path class="lower-st4" d="M24.8,404L24.8,404c0-1.5,1.3-2.6,2.9-2.6s2.9,1.2,2.9,2.6c0,1.5-1.3,2.6-2.9,2.6S24.8,405.4,24.8,404z"/>
<path class="lower-st5" d="M24.8,404L24.8,404c0-1.5,1.3-2.6,2.9-2.6s2.9,1.2,2.9,2.6c0,1.5-1.3,2.6-2.9,2.6S24.8,405.4,24.8,404z"/>
<path class="lower-st4" d="M36.8,404L36.8,404c0-1.5,1.3-2.6,2.9-2.6s2.9,1.2,2.9,2.6c0,1.5-1.3,2.6-2.9,2.6S36.8,405.4,36.8,404z"/>
<path class="lower-st5" d="M36.8,404L36.8,404c0-1.5,1.3-2.6,2.9-2.6s2.9,1.2,2.9,2.6c0,1.5-1.3,2.6-2.9,2.6S36.8,405.4,36.8,404z"/>
<path class="lower-st4" d="M48.8,404L48.8,404c0-1.5,1.3-2.6,2.9-2.6s2.9,1.2,2.9,2.6c0,1.5-1.3,2.6-2.9,2.6S48.8,405.4,48.8,404z"/>
<path class="lower-st5" d="M48.8,404L48.8,404c0-1.5,1.3-2.6,2.9-2.6s2.9,1.2,2.9,2.6c0,1.5-1.3,2.6-2.9,2.6S48.8,405.4,48.8,404z"/>
<path class="lower-st4" d="M60.8,404L60.8,404c0-1.5,1.3-2.6,2.9-2.6s2.9,1.2,2.9,2.6c0,1.5-1.3,2.6-2.9,2.6S60.8,405.4,60.8,404z"/>
<path class="lower-st5" d="M60.8,404L60.8,404c0-1.5,1.3-2.6,2.9-2.6s2.9,1.2,2.9,2.6c0,1.5-1.3,2.6-2.9,2.6S60.8,405.4,60.8,404z"/>
<path class="lower-st4" d="M72.8,404L72.8,404c0-1.5,1.3-2.6,2.9-2.6s2.9,1.2,2.9,2.6c0,1.5-1.3,2.6-2.9,2.6S72.8,405.4,72.8,404z"/>
<path class="lower-st5" d="M72.8,404L72.8,404c0-1.5,1.3-2.6,2.9-2.6s2.9,1.2,2.9,2.6c0,1.5-1.3,2.6-2.9,2.6S72.8,405.4,72.8,404z"/>
<path class="lower-st4" d="M84.8,404L84.8,404c0-1.5,1.3-2.6,2.9-2.6s2.9,1.2,2.9,2.6c0,1.5-1.3,2.6-2.9,2.6S84.8,405.4,84.8,404z"/>
<path class="lower-st5" d="M84.8,404L84.8,404c0-1.5,1.3-2.6,2.9-2.6s2.9,1.2,2.9,2.6c0,1.5-1.3,2.6-2.9,2.6S84.8,405.4,84.8,404z"/>
<path class="lower-st4" d="M96.8,404L96.8,404c0-1.5,1.3-2.6,2.9-2.6s2.9,1.2,2.9,2.6c0,1.5-1.3,2.6-2.9,2.6S96.8,405.4,96.8,404z"/>
<path class="lower-st5" d="M96.8,404L96.8,404c0-1.5,1.3-2.6,2.9-2.6s2.9,1.2,2.9,2.6c0,1.5-1.3,2.6-2.9,2.6S96.8,405.4,96.8,404z"/>
<line class="lower-st2" x1="-18.7" y1="415.1" x2="-18.7" y2="439.8"/>
<line class="lower-st3" x1="-18.7" y1="415.1" x2="-18.7" y2="439.8"/>
<line class="lower-st2" x1="348.9" y1="415.1" x2="348.9" y2="439.8"/>
<line class="lower-st3" x1="348.9" y1="415.1" x2="348.9" y2="439.8"/>
<path class="lower-st4" d="M108.8,404L108.8,404c0-1.5,1.3-2.6,2.9-2.6s2.9,1.2,2.9,2.6c0,1.5-1.3,2.6-2.9,2.6S108.8,405.4,108.8,404z"/>
<path class="lower-st5" d="M108.8,404L108.8,404c0-1.5,1.3-2.6,2.9-2.6s2.9,1.2,2.9,2.6c0,1.5-1.3,2.6-2.9,2.6S108.8,405.4,108.8,404z"/>
<path class="lower-st4" d="M120.8,404L120.8,404c0-1.5,1.3-2.6,2.9-2.6s2.9,1.2,2.9,2.6c0,1.5-1.3,2.6-2.9,2.6S120.8,405.4,120.8,404z"/>
<path class="lower-st5" d="M120.8,404L120.8,404c0-1.5,1.3-2.6,2.9-2.6s2.9,1.2,2.9,2.6c0,1.5-1.3,2.6-2.9,2.6S120.8,405.4,120.8,404z"/>
<path class="lower-st4" d="M132.8,404L132.8,404c0-1.5,1.3-2.6,2.9-2.6s2.9,1.2,2.9,2.6c0,1.5-1.3,2.6-2.9,2.6S132.8,405.4,132.8,404z"/>
<path class="lower-st5" d="M132.8,404L132.8,404c0-1.5,1.3-2.6,2.9-2.6s2.9,1.2,2.9,2.6c0,1.5-1.3,2.6-2.9,2.6S132.8,405.4,132.8,404z"/>
<path class="lower-st4" d="M144.8,404L144.8,404c0-1.5,1.3-2.6,2.9-2.6s2.9,1.2,2.9,2.6c0,1.5-1.3,2.6-2.9,2.6S144.8,405.4,144.8,404z"/>
<path class="lower-st5" d="M144.8,404L144.8,404c0-1.5,1.3-2.6,2.9-2.6s2.9,1.2,2.9,2.6c0,1.5-1.3,2.6-2.9,2.6S144.8,405.4,144.8,404z"/>
<path class="lower-st4" d="M156.8,404L156.8,404c0-1.5,1.3-2.6,2.9-2.6s2.9,1.2,2.9,2.6c0,1.5-1.3,2.6-2.9,2.6S156.8,405.4,156.8,404z"/>
<path class="lower-st5" d="M156.8,404L156.8,404c0-1.5,1.3-2.6,2.9-2.6s2.9,1.2,2.9,2.6c0,1.5-1.3,2.6-2.9,2.6S156.8,405.4,156.8,404z"/>
<path class="lower-st4" d="M168.8,404L168.8,404c0-1.5,1.3-2.6,2.9-2.6s2.9,1.2,2.9,2.6c0,1.5-1.3,2.6-2.9,2.6S168.8,405.4,168.8,404z"/>
<path class="lower-st5" d="M168.8,404L168.8,404c0-1.5,1.3-2.6,2.9-2.6s2.9,1.2,2.9,2.6c0,1.5-1.3,2.6-2.9,2.6S168.8,405.4,168.8,404z"/>
<path class="lower-st4" d="M180.8,404L180.8,404c0-1.5,1.3-2.6,2.9-2.6s2.9,1.2,2.9,2.6c0,1.5-1.3,2.6-2.9,2.6S180.8,405.4,180.8,404z"/>
<path class="lower-st5" d="M180.8,404L180.8,404c0-1.5,1.3-2.6,2.9-2.6s2.9,1.2,2.9,2.6c0,1.5-1.3,2.6-2.9,2.6S180.8,405.4,180.8,404z"/>
<path class="lower-st4" d="M192.8,404L192.8,404c0-1.5,1.3-2.6,2.9-2.6s2.9,1.2,2.9,2.6c0,1.5-1.3,2.6-2.9,2.6S192.8,405.4,192.8,404z"/>
<path class="lower-st5" d="M192.8,404L192.8,404c0-1.5,1.3-2.6,2.9-2.6s2.9,1.2,2.9,2.6c0,1.5-1.3,2.6-2.9,2.6S192.8,405.4,192.8,404z"/>
<path class="lower-st4" d="M120.8,404L120.8,404c0-1.5,1.3-2.6,2.9-2.6s2.9,1.2,2.9,2.6c0,1.5-1.3,2.6-2.9,2.6S120.8,405.4,120.8,404z"/>
<path class="lower-st5" d="M120.8,404L120.8,404c0-1.5,1.3-2.6,2.9-2.6s2.9,1.2,2.9,2.6c0,1.5-1.3,2.6-2.9,2.6S120.8,405.4,120.8,404z"/>
<path class="lower-st4" d="M132.8,404L132.8,404c0-1.5,1.3-2.6,2.9-2.6s2.9,1.2,2.9,2.6c0,1.5-1.3,2.6-2.9,2.6S132.8,405.4,132.8,404z"/>
<path class="lower-st5" d="M132.8,404L132.8,404c0-1.5,1.3-2.6,2.9-2.6s2.9,1.2,2.9,2.6c0,1.5-1.3,2.6-2.9,2.6S132.8,405.4,132.8,404z"/>
<path class="lower-st4" d="M144.8,404L144.8,404c0-1.5,1.3-2.6,2.9-2.6s2.9,1.2,2.9,2.6c0,1.5-1.3,2.6-2.9,2.6S144.8,405.4,144.8,404z"/>
<path class="lower-st5" d="M144.8,404L144.8,404c0-1.5,1.3-2.6,2.9-2.6s2.9,1.2,2.9,2.6c0,1.5-1.3,2.6-2.9,2.6S144.8,405.4,144.8,404z"/>
<path class="lower-st4" d="M156.8,404L156.8,404c0-1.5,1.3-2.6,2.9-2.6s2.9,1.2,2.9,2.6c0,1.5-1.3,2.6-2.9,2.6S156.8,405.4,156.8,404z"/>
<path class="lower-st5" d="M156.8,404L156.8,404c0-1.5,1.3-2.6,2.9-2.6s2.9,1.2,2.9,2.6c0,1.5-1.3,2.6-2.9,2.6S156.8,405.4,156.8,404z"/>
<path class="lower-st4" d="M168.8,404L168.8,404c0-1.5,1.3-2.6,2.9-2.6s2.9,1.2,2.9,2.6c0,1.5-1.3,2.6-2.9,2.6S168.8,405.4,168.8,404z"/>
<path class="lower-st5" d="M168.8,404L168.8,404c0-1.5,1.3-2.6,2.9-2.6s2.9,1.2,2.9,2.6c0,1.5-1.3,2.6-2.9,2.6S168.8,405.4,168.8,404z"/>
<path class="lower-st4" d="M180.8,404L180.8,404c0-1.5,1.3-2.6,2.9-2.6s2.9,1.2,2.9,2.6c0,1.5-1.3,2.6-2.9,2.6S180.8,405.4,180.8,404z"/>
<path class="lower-st5" d="M180.8,404L180.8,404c0-1.5,1.3-2.6,2.9-2.6s2.9,1.2,2.9,2.6c0,1.5-1.3,2.6-2.9,2.6S180.8,405.4,180.8,404z"/>
<path class="lower-st4" d="M192.8,404L192.8,404c0-1.5,1.3-2.6,2.9-2.6s2.9,1.2,2.9,2.6c0,1.5-1.3,2.6-2.9,2.6S192.8,405.4,192.8,404z"/>
<path class="lower-st5" d="M192.8,404L192.8,404c0-1.5,1.3-2.6,2.9-2.6s2.9,1.2,2.9,2.6c0,1.5-1.3,2.6-2.9,2.6S192.8,405.4,192.8,404z"/>
<path class="lower-st4" d="M204.8,404L204.8,404c0-1.5,1.3-2.6,2.9-2.6s2.9,1.2,2.9,2.6c0,1.5-1.3,2.6-2.9,2.6S204.8,405.4,204.8,404z"/>
<path class="lower-st5" d="M204.8,404L204.8,404c0-1.5,1.3-2.6,2.9-2.6s2.9,1.2,2.9,2.6c0,1.5-1.3,2.6-2.9,2.6S204.8,405.4,204.8,404z"/>
<path class="lower-st4" d="M120.8,404L120.8,404c0-1.5,1.3-2.6,2.9-2.6s2.9,1.2,2.9,2.6c0,1.5-1.3,2.6-2.9,2.6S120.8,405.4,120.8,404z"/>
<path class="lower-st5" d="M120.8,404L120.8,404c0-1.5,1.3-2.6,2.9-2.6s2.9,1.2,2.9,2.6c0,1.5-1.3,2.6-2.9,2.6S120.8,405.4,120.8,404z"/>
<path class="lower-st4" d="M276.8,404L276.8,404c0-1.5,1.3-2.6,2.9-2.6s2.9,1.2,2.9,2.6c0,1.5-1.3,2.6-2.9,2.6
	C278.1,406.6,276.8,405.4,276.8,404z"/>
<path class="lower-st5" d="M276.8,404L276.8,404c0-1.5,1.3-2.6,2.9-2.6s2.9,1.2,2.9,2.6c0,1.5-1.3,2.6-2.9,2.6
	C278.1,406.6,276.8,405.4,276.8,404z"/>
<path class="lower-st4" d="M144.8,404L144.8,404c0-1.5,1.3-2.6,2.9-2.6s2.9,1.2,2.9,2.6c0,1.5-1.3,2.6-2.9,2.6S144.8,405.4,144.8,404z"/>
<path class="lower-st5" d="M144.8,404L144.8,404c0-1.5,1.3-2.6,2.9-2.6s2.9,1.2,2.9,2.6c0,1.5-1.3,2.6-2.9,2.6S144.8,405.4,144.8,404z"/>
<path class="lower-st4" d="M156.8,404L156.8,404c0-1.5,1.3-2.6,2.9-2.6s2.9,1.2,2.9,2.6c0,1.5-1.3,2.6-2.9,2.6S156.8,405.4,156.8,404z"/>
<path class="lower-st5" d="M156.8,404L156.8,404c0-1.5,1.3-2.6,2.9-2.6s2.9,1.2,2.9,2.6c0,1.5-1.3,2.6-2.9,2.6S156.8,405.4,156.8,404z"/>
<path class="lower-st4" d="M168.8,404L168.8,404c0-1.5,1.3-2.6,2.9-2.6s2.9,1.2,2.9,2.6c0,1.5-1.3,2.6-2.9,2.6S168.8,405.4,168.8,404z"/>
<path class="lower-st5" d="M168.8,404L168.8,404c0-1.5,1.3-2.6,2.9-2.6s2.9,1.2,2.9,2.6c0,1.5-1.3,2.6-2.9,2.6S168.8,405.4,168.8,404z"/>
<path class="lower-st4" d="M180.8,404L180.8,404c0-1.5,1.3-2.6,2.9-2.6s2.9,1.2,2.9,2.6c0,1.5-1.3,2.6-2.9,2.6S180.8,405.4,180.8,404z"/>
<path class="lower-st5" d="M180.8,404L180.8,404c0-1.5,1.3-2.6,2.9-2.6s2.9,1.2,2.9,2.6c0,1.5-1.3,2.6-2.9,2.6S180.8,405.4,180.8,404z"/>
<path class="lower-st4" d="M192.8,404L192.8,404c0-1.5,1.3-2.6,2.9-2.6s2.9,1.2,2.9,2.6c0,1.5-1.3,2.6-2.9,2.6S192.8,405.4,192.8,404z"/>
<path class="lower-st5" d="M192.8,404L192.8,404c0-1.5,1.3-2.6,2.9-2.6s2.9,1.2,2.9,2.6c0,1.5-1.3,2.6-2.9,2.6S192.8,405.4,192.8,404z"/>
<path class="lower-st4" d="M240.8,404L240.8,404c0-1.5,1.3-2.6,2.9-2.6s2.9,1.2,2.9,2.6c0,1.5-1.3,2.6-2.9,2.6
	C242.1,406.6,240.8,405.4,240.8,404z"/>
<path class="lower-st5" d="M240.8,404L240.8,404c0-1.5,1.3-2.6,2.9-2.6s2.9,1.2,2.9,2.6c0,1.5-1.3,2.6-2.9,2.6
	C242.1,406.6,240.8,405.4,240.8,404z"/>
<path class="lower-st6" d="M216.8,404L216.8,404c0-1.5,1.3-2.6,2.9-2.6s2.9,1.2,2.9,2.6c0,1.5-1.3,2.6-2.9,2.6S216.8,405.4,216.8,404z"/>
<path class="lower-st5" d="M216.8,404L216.8,404c0-1.5,1.3-2.6,2.9-2.6s2.9,1.2,2.9,2.6c0,1.5-1.3,2.6-2.9,2.6S216.8,405.4,216.8,404z"/>
<path class="lower-st6" d="M228.8,404L228.8,404c0-1.5,1.3-2.6,2.9-2.6s2.9,1.2,2.9,2.6c0,1.5-1.3,2.6-2.9,2.6
	C230.1,406.6,228.8,405.4,228.8,404z"/>
<path class="lower-st5" d="M228.8,404L228.8,404c0-1.5,1.3-2.6,2.9-2.6s2.9,1.2,2.9,2.6c0,1.5-1.3,2.6-2.9,2.6
	C230.1,406.6,228.8,405.4,228.8,404z"/>
<path class="lower-st6" d="M240.8,404L240.8,404c0-1.5,1.3-2.6,2.9-2.6s2.9,1.2,2.9,2.6c0,1.5-1.3,2.6-2.9,2.6
	C242.1,406.6,240.8,405.4,240.8,404z"/>
<path class="lower-st5" d="M240.8,404L240.8,404c0-1.5,1.3-2.6,2.9-2.6s2.9,1.2,2.9,2.6c0,1.5-1.3,2.6-2.9,2.6
	C242.1,406.6,240.8,405.4,240.8,404z"/>
<path class="lower-st6" d="M252.8,404L252.8,404c0-1.5,1.3-2.6,2.9-2.6s2.9,1.2,2.9,2.6c0,1.5-1.3,2.6-2.9,2.6
	C254.1,406.6,252.8,405.4,252.8,404z"/>
<path class="lower-st5" d="M252.8,404L252.8,404c0-1.5,1.3-2.6,2.9-2.6s2.9,1.2,2.9,2.6c0,1.5-1.3,2.6-2.9,2.6
	C254.1,406.6,252.8,405.4,252.8,404z"/>
<path class="lower-st6" d="M264.8,404L264.8,404c0-1.5,1.3-2.6,2.9-2.6s2.9,1.2,2.9,2.6c0,1.5-1.3,2.6-2.9,2.6
	C266.1,406.6,264.8,405.4,264.8,404z"/>
<path class="lower-st5" d="M264.8,404L264.8,404c0-1.5,1.3-2.6,2.9-2.6s2.9,1.2,2.9,2.6c0,1.5-1.3,2.6-2.9,2.6
	C266.1,406.6,264.8,405.4,264.8,404z"/>
<path class="lower-st6" d="M276.8,404L276.8,404c0-1.5,1.3-2.6,2.9-2.6s2.9,1.2,2.9,2.6c0,1.5-1.3,2.6-2.9,2.6
	C278.1,406.6,276.8,405.4,276.8,404z"/>
<path class="lower-st5" d="M276.8,404L276.8,404c0-1.5,1.3-2.6,2.9-2.6s2.9,1.2,2.9,2.6c0,1.5-1.3,2.6-2.9,2.6
	C278.1,406.6,276.8,405.4,276.8,404z"/>
<path class="lower-st6" d="M288.8,404L288.8,404c0-1.5,1.3-2.6,2.9-2.6s2.9,1.2,2.9,2.6c0,1.5-1.3,2.6-2.9,2.6
	C290.1,406.6,288.8,405.4,288.8,404z"/>
<path class="lower-st5" d="M288.8,404L288.8,404c0-1.5,1.3-2.6,2.9-2.6s2.9,1.2,2.9,2.6c0,1.5-1.3,2.6-2.9,2.6
	C290.1,406.6,288.8,405.4,288.8,404z"/>
<path class="lower-st6" d="M300.8,404L300.8,404c0-1.5,1.3-2.6,2.9-2.6s2.9,1.2,2.9,2.6c0,1.5-1.3,2.6-2.9,2.6
	C302.1,406.6,300.8,405.4,300.8,404z"/>
<path class="lower-st5" d="M300.8,404L300.8,404c0-1.5,1.3-2.6,2.9-2.6s2.9,1.2,2.9,2.6c0,1.5-1.3,2.6-2.9,2.6
	C302.1,406.6,300.8,405.4,300.8,404z"/>
<path class="lower-st6" d="M228.8,404L228.8,404c0-1.5,1.3-2.6,2.9-2.6s2.9,1.2,2.9,2.6c0,1.5-1.3,2.6-2.9,2.6
	C230.1,406.6,228.8,405.4,228.8,404z"/>
<path class="lower-st5" d="M228.8,404L228.8,404c0-1.5,1.3-2.6,2.9-2.6s2.9,1.2,2.9,2.6c0,1.5-1.3,2.6-2.9,2.6
	C230.1,406.6,228.8,405.4,228.8,404z"/>
<path class="lower-st6" d="M240.8,404L240.8,404c0-1.5,1.3-2.6,2.9-2.6s2.9,1.2,2.9,2.6c0,1.5-1.3,2.6-2.9,2.6
	C242.1,406.6,240.8,405.4,240.8,404z"/>
<path class="lower-st5" d="M240.8,404L240.8,404c0-1.5,1.3-2.6,2.9-2.6s2.9,1.2,2.9,2.6c0,1.5-1.3,2.6-2.9,2.6
	C242.1,406.6,240.8,405.4,240.8,404z"/>
<path class="lower-st6" d="M252.8,404L252.8,404c0-1.5,1.3-2.6,2.9-2.6s2.9,1.2,2.9,2.6c0,1.5-1.3,2.6-2.9,2.6
	C254.1,406.6,252.8,405.4,252.8,404z"/>
<path class="lower-st5" d="M252.8,404L252.8,404c0-1.5,1.3-2.6,2.9-2.6s2.9,1.2,2.9,2.6c0,1.5-1.3,2.6-2.9,2.6
	C254.1,406.6,252.8,405.4,252.8,404z"/>
<path class="lower-st6" d="M264.8,404L264.8,404c0-1.5,1.3-2.6,2.9-2.6s2.9,1.2,2.9,2.6c0,1.5-1.3,2.6-2.9,2.6
	C266.1,406.6,264.8,405.4,264.8,404z"/>
<path class="lower-st5" d="M264.8,404L264.8,404c0-1.5,1.3-2.6,2.9-2.6s2.9,1.2,2.9,2.6c0,1.5-1.3,2.6-2.9,2.6
	C266.1,406.6,264.8,405.4,264.8,404z"/>
<path class="lower-st6" d="M276.8,404L276.8,404c0-1.5,1.3-2.6,2.9-2.6s2.9,1.2,2.9,2.6c0,1.5-1.3,2.6-2.9,2.6
	C278.1,406.6,276.8,405.4,276.8,404z"/>
<path class="lower-st5" d="M276.8,404L276.8,404c0-1.5,1.3-2.6,2.9-2.6s2.9,1.2,2.9,2.6c0,1.5-1.3,2.6-2.9,2.6
	C278.1,406.6,276.8,405.4,276.8,404z"/>
<path class="lower-st6" d="M288.8,404L288.8,404c0-1.5,1.3-2.6,2.9-2.6s2.9,1.2,2.9,2.6c0,1.5-1.3,2.6-2.9,2.6
	C290.1,406.6,288.8,405.4,288.8,404z"/>
<path class="lower-st5" d="M288.8,404L288.8,404c0-1.5,1.3-2.6,2.9-2.6s2.9,1.2,2.9,2.6c0,1.5-1.3,2.6-2.9,2.6
	C290.1,406.6,288.8,405.4,288.8,404z"/>
<path class="lower-st6" d="M300.8,404L300.8,404c0-1.5,1.3-2.6,2.9-2.6s2.9,1.2,2.9,2.6c0,1.5-1.3,2.6-2.9,2.6
	C302.1,406.6,300.8,405.4,300.8,404z"/>
<path class="lower-st5" d="M300.8,404L300.8,404c0-1.5,1.3-2.6,2.9-2.6s2.9,1.2,2.9,2.6c0,1.5-1.3,2.6-2.9,2.6
	C302.1,406.6,300.8,405.4,300.8,404z"/>
<path class="lower-st6" d="M312.8,404L312.8,404c0-1.5,1.3-2.6,2.9-2.6s2.9,1.2,2.9,2.6c0,1.5-1.3,2.6-2.9,2.6
	C314.1,406.6,312.8,405.4,312.8,404z"/>
<path class="lower-st5" d="M312.8,404L312.8,404c0-1.5,1.3-2.6,2.9-2.6s2.9,1.2,2.9,2.6c0,1.5-1.3,2.6-2.9,2.6
	C314.1,406.6,312.8,405.4,312.8,404z"/>
<path class="lower-st6" d="M228.8,404L228.8,404c0-1.5,1.3-2.6,2.9-2.6s2.9,1.2,2.9,2.6c0,1.5-1.3,2.6-2.9,2.6
	C230.1,406.6,228.8,405.4,228.8,404z"/>
<path class="lower-st5" d="M228.8,404L228.8,404c0-1.5,1.3-2.6,2.9-2.6s2.9,1.2,2.9,2.6c0,1.5-1.3,2.6-2.9,2.6
	C230.1,406.6,228.8,405.4,228.8,404z"/>
<path class="lower-st6" d="M192.8,404L192.8,404c0-1.5,1.3-2.6,2.9-2.6s2.9,1.2,2.9,2.6c0,1.5-1.3,2.6-2.9,2.6S192.8,405.4,192.8,404z"/>
<path class="lower-st5" d="M192.8,404L192.8,404c0-1.5,1.3-2.6,2.9-2.6s2.9,1.2,2.9,2.6c0,1.5-1.3,2.6-2.9,2.6S192.8,405.4,192.8,404z"/>
<path class="lower-st6" d="M252.8,404L252.8,404c0-1.5,1.3-2.6,2.9-2.6s2.9,1.2,2.9,2.6c0,1.5-1.3,2.6-2.9,2.6
	C254.1,406.6,252.8,405.4,252.8,404z"/>
<path class="lower-st5" d="M252.8,404L252.8,404c0-1.5,1.3-2.6,2.9-2.6s2.9,1.2,2.9,2.6c0,1.5-1.3,2.6-2.9,2.6
	C254.1,406.6,252.8,405.4,252.8,404z"/>
<path class="lower-st6" d="M264.8,404L264.8,404c0-1.5,1.3-2.6,2.9-2.6s2.9,1.2,2.9,2.6c0,1.5-1.3,2.6-2.9,2.6
	C266.1,406.6,264.8,405.4,264.8,404z"/>
<path class="lower-st5" d="M264.8,404L264.8,404c0-1.5,1.3-2.6,2.9-2.6s2.9,1.2,2.9,2.6c0,1.5-1.3,2.6-2.9,2.6
	C266.1,406.6,264.8,405.4,264.8,404z"/>
<path class="lower-st6" d="M276.8,404L276.8,404c0-1.5,1.3-2.6,2.9-2.6s2.9,1.2,2.9,2.6c0,1.5-1.3,2.6-2.9,2.6
	C278.1,406.6,276.8,405.4,276.8,404z"/>
<path class="lower-st5" d="M276.8,404L276.8,404c0-1.5,1.3-2.6,2.9-2.6s2.9,1.2,2.9,2.6c0,1.5-1.3,2.6-2.9,2.6
	C278.1,406.6,276.8,405.4,276.8,404z"/>
<path class="lower-st6" d="M168.8,404L168.8,404c0-1.5,1.3-2.6,2.9-2.6s2.9,1.2,2.9,2.6c0,1.5-1.3,2.6-2.9,2.6S168.8,405.4,168.8,404z"/>
<path class="lower-st5" d="M168.8,404L168.8,404c0-1.5,1.3-2.6,2.9-2.6s2.9,1.2,2.9,2.6c0,1.5-1.3,2.6-2.9,2.6S168.8,405.4,168.8,404z"/>
<path class="lower-st6" d="M300.8,404L300.8,404c0-1.5,1.3-2.6,2.9-2.6s2.9,1.2,2.9,2.6c0,1.5-1.3,2.6-2.9,2.6
	C302.1,406.6,300.8,405.4,300.8,404z"/>
<path class="lower-st5" d="M300.8,404L300.8,404c0-1.5,1.3-2.6,2.9-2.6s2.9,1.2,2.9,2.6c0,1.5-1.3,2.6-2.9,2.6
	C302.1,406.6,300.8,405.4,300.8,404z"/>
<path class="lower-st6" d="M312.8,404L312.8,404c0-1.5,1.3-2.6,2.9-2.6s2.9,1.2,2.9,2.6c0,1.5-1.3,2.6-2.9,2.6
	C314.1,406.6,312.8,405.4,312.8,404z"/>
<path class="lower-st5" d="M312.8,404L312.8,404c0-1.5,1.3-2.6,2.9-2.6s2.9,1.2,2.9,2.6c0,1.5-1.3,2.6-2.9,2.6
	C314.1,406.6,312.8,405.4,312.8,404z"/>
<path class="lower-st6" d="M324.8,404L324.8,404c0-1.5,1.3-2.6,2.9-2.6s2.9,1.2,2.9,2.6c0,1.5-1.3,2.6-2.9,2.6
	C326.1,406.6,324.8,405.4,324.8,404z"/>
<path class="lower-st5" d="M324.8,404L324.8,404c0-1.5,1.3-2.6,2.9-2.6s2.9,1.2,2.9,2.6c0,1.5-1.3,2.6-2.9,2.6
	C326.1,406.6,324.8,405.4,324.8,404z"/>
<path class="lower-st4" d="M396.8,404L396.8,404c0-1.5,1.3-2.6,2.9-2.6s2.9,1.2,2.9,2.6c0,1.5-1.3,2.6-2.9,2.6
	C398.1,406.6,396.8,405.4,396.8,404z"/>
<path class="lower-st5" d="M396.8,404L396.8,404c0-1.5,1.3-2.6,2.9-2.6s2.9,1.2,2.9,2.6c0,1.5-1.3,2.6-2.9,2.6
	C398.1,406.6,396.8,405.4,396.8,404z"/>
<text transform="matrix(1 0 0 1 406.2598 406.7373)" class="lower-st0 lower-st1">Actually not spam</text>
<path class="lower-st6" d="M396.8,422L396.8,422c0-1.5,1.3-2.6,2.9-2.6s2.9,1.2,2.9,2.6c0,1.5-1.3,2.6-2.9,2.6
	C398.1,424.6,396.8,423.4,396.8,422z"/>
<path class="lower-st5" d="M396.8,422L396.8,422c0-1.5,1.3-2.6,2.9-2.6s2.9,1.2,2.9,2.6c0,1.5-1.3,2.6-2.9,2.6
	C398.1,424.6,396.8,423.4,396.8,422z"/>
<text transform="matrix(1 0 0 1 406.2598 424.7373)" class="lower-st0 lower-st1">Actually spam</text>
<path class="lower-st4" d="M252.8,404L252.8,404c0-1.5,1.3-2.6,2.9-2.6s2.9,1.2,2.9,2.6c0,1.5-1.3,2.6-2.9,2.6
	C254.1,406.6,252.8,405.4,252.8,404z"/>
<path class="lower-st5" d="M252.8,404L252.8,404c0-1.5,1.3-2.6,2.9-2.6s2.9,1.2,2.9,2.6c0,1.5-1.3,2.6-2.9,2.6
	C254.1,406.6,252.8,405.4,252.8,404z"/>
<path class="lower-st6" d="M336.8,404L336.8,404c0-1.5,1.3-2.6,2.9-2.6s2.9,1.2,2.9,2.6c0,1.5-1.3,2.6-2.9,2.6
	C338.1,406.6,336.8,405.4,336.8,404z"/>
<path class="lower-st5" d="M336.8,404L336.8,404c0-1.5,1.3-2.6,2.9-2.6s2.9,1.2,2.9,2.6c0,1.5-1.3,2.6-2.9,2.6
	C338.1,406.6,336.8,405.4,336.8,404z"/>
<line class="lower-st7" x1="201.7" y1="374" x2="201.7" y2="428"/>
<path class="lower-st4" d="M228.8,404L228.8,404c0-1.5,1.3-2.6,2.9-2.6s2.9,1.2,2.9,2.6c0,1.5-1.3,2.6-2.9,2.6
	C230.1,406.6,228.8,405.4,228.8,404z"/>
<path class="lower-st5" d="M228.8,404L228.8,404c0-1.5,1.3-2.6,2.9-2.6s2.9,1.2,2.9,2.6c0,1.5-1.3,2.6-2.9,2.6
	C230.1,406.6,228.8,405.4,228.8,404z"/>
<rect x="-33.2" y="431.8" class="lower-st8" width="29.7" height="10"/>
<rect x="334" y="434.4" class="lower-st8" width="29.7" height="10"/>
<text transform="matrix(1 0 0 1 -25.2544 448.6099)" class="lower-st0 lower-st9">0.0</text>
<text transform="matrix(1 0 0 1 341.9201 448.6099)" class="lower-st0 lower-st9">1.0</text>
<rect x="132.7" y="344.7" class="lower-st2" width="138.2" height="33.8"/>
<text transform="matrix(1 0 0 1 169.3391 352.5479)" class="lower-st0 lower-st1">Classification</text>
<text transform="matrix(1 0 0 1 177.2391 365.7479)" class="lower-st0 lower-st1">Threshold</text>
<text transform="matrix(1 0 0 1 -13.5919 416.8034)" class="lower-st0 lower-st10">TN</text>
<text transform="matrix(1 0 0 1 -1.5919 416.8032)" class="lower-st0 lower-st10">TN</text>
<text transform="matrix(1 0 0 1 10.4081 416.8033)" class="lower-st0 lower-st10">TN</text>
<text transform="matrix(1 0 0 1 22.4081 416.8034)" class="lower-st0 lower-st10">TN</text>
<text transform="matrix(1 0 0 1 34.4081 416.8031)" class="lower-st0 lower-st10">TN</text>
<text transform="matrix(1 0 0 1 46.4081 416.8033)" class="lower-st0 lower-st10">TN</text>
<text transform="matrix(1 0 0 1 58.4081 416.8031)" class="lower-st0 lower-st10">TN</text>
<text transform="matrix(1 0 0 1 70.4081 416.8031)" class="lower-st0 lower-st10">TN</text>
<text transform="matrix(1 0 0 1 82.4081 416.8033)" class="lower-st0 lower-st10">TN</text>
<text transform="matrix(1 0 0 1 94.4081 416.8033)" class="lower-st0 lower-st10">TN</text>
<text transform="matrix(1 0 0 1 106.4081 416.8033)" class="lower-st0 lower-st10">TN</text>
<text transform="matrix(1 0 0 1 118.4081 416.8032)" class="lower-st0 lower-st10">TN</text>
<text transform="matrix(1 0 0 1 130.4081 416.8034)" class="lower-st0 lower-st10">TN</text>
<text transform="matrix(1 0 0 1 142.4081 416.8034)" class="lower-st0 lower-st10">TN</text>
<text transform="matrix(1 0 0 1 154.4081 416.8033)" class="lower-st0 lower-st10">TN</text>
<text transform="matrix(1 0 0 1 166.4081 416.8031)" class="lower-st0 lower-st10">FN</text>
<text transform="matrix(1 0 0 1 178.4005 416.8031)" class="lower-st0 lower-st10">TN</text>
<text transform="matrix(1 0 0 1 190.4215 416.803)" class="lower-st0 lower-st10">FN</text>
<text transform="matrix(1 0 0 1 202.4245 416.8031)" class="lower-st0 lower-st10">FP</text>
<text transform="matrix(1 0 0 1 214.5071 416.8034)" class="lower-st0 lower-st10">TP</text>
<text transform="matrix(1 0 0 1 226.424 416.8032)" class="lower-st0 lower-st10">FP</text>
<text transform="matrix(1 0 0 1 238.4478 416.8031)" class="lower-st0 lower-st10">TP</text>
<text transform="matrix(1 0 0 1 250.6288 416.8034)" class="lower-st0 lower-st10">FP</text>
<text transform="matrix(1 0 0 1 262.4378 416.803)" class="lower-st0 lower-st10">TP</text>
<text transform="matrix(1 0 0 1 274.3961 416.8034)" class="lower-st0 lower-st10">TP</text>
<text transform="matrix(1 0 0 1 286.3961 416.803)" class="lower-st0 lower-st10">TP</text>
<text transform="matrix(1 0 0 1 298.4378 416.8033)" class="lower-st0 lower-st10">TP</text>
<text transform="matrix(1 0 0 1 310.3961 416.8032)" class="lower-st0 lower-st10">TP</text>
<text transform="matrix(1 0 0 1 322.3961 416.803)" class="lower-st0 lower-st10">TP</text>
<text transform="matrix(1 0 0 1 334.4378 416.8032)" class="lower-st0 lower-st10">TP</text>
</svg>
